<svg width="305" height="95" viewBox="0 0 305 95" fill="none" xmlns="http://www.w3.org/2000/svg">
<ellipse cx="154.5" cy="48" rx="34.5" ry="35" fill="white"/>
<path d="M259.628 55.338C259.568 55.0078 259.51 54.6875 259.457 54.3796C259.405 54.0714 259.372 53.8348 259.357 53.6692L258.184 44.7156C258.168 44.5802 258.146 44.3619 258.116 44.0614C258.086 43.7608 258.056 43.4411 258.026 43.1031C257.996 42.7646 257.969 42.4452 257.948 42.1442C257.924 41.8438 257.913 41.6182 257.913 41.4676C257.913 41.3775 257.861 41.3323 257.756 41.3323H257.598H257.484H257.326C257.221 41.3323 257.153 41.3775 257.124 41.4676C257.078 41.6182 256.989 41.8479 256.853 42.1556C256.718 42.4646 256.574 42.787 256.424 43.1255C256.274 43.4635 256.132 43.7832 255.996 44.0838C255.861 44.3848 255.764 44.6031 255.704 44.7384L251.62 53.1728C251.59 53.2484 251.565 53.2854 251.541 53.2854C251.52 53.2854 251.493 53.2484 251.462 53.1728L247.404 44.7384C247.282 44.4979 247.156 44.2156 247.02 43.8922C246.885 43.5698 246.749 43.2422 246.614 42.9114C246.478 42.5807 246.352 42.2687 246.23 41.9755C246.11 41.6818 246.02 41.4452 245.96 41.2646C245.914 41.1744 245.848 41.1375 245.757 41.1526L245.306 41.3099C245.216 41.3551 245.17 41.4536 245.17 41.6031C245.17 41.7536 245.16 41.9755 245.137 42.2687C245.114 42.5614 245.092 42.8666 245.069 43.1818C245.046 43.4979 245.02 43.7984 244.99 44.0838C244.96 44.3698 244.937 44.5802 244.924 44.7156L243.728 53.737C243.713 53.8875 243.678 54.1166 243.625 54.4244C243.573 54.7328 243.521 55.0562 243.468 55.3942C243.414 55.7328 243.358 56.0484 243.3 56.3416C243.238 56.6348 243.186 56.849 243.141 56.9843C243.11 57.0744 243.149 57.1198 243.254 57.1198H243.412H245.194H245.352C245.457 57.1198 245.509 57.0744 245.509 56.9843C245.509 56.849 245.517 56.6348 245.532 56.3416C245.546 56.0484 245.572 55.7328 245.61 55.3942C245.648 55.0562 245.682 54.7328 245.712 54.4244C245.742 54.1166 245.764 53.8875 245.78 53.737L246.569 47.4223C246.584 47.3318 246.614 47.3166 246.658 47.3771L249.726 53.7594C249.816 53.9703 249.933 54.237 250.077 54.5599C250.218 54.8832 250.361 55.2067 250.505 55.5296C250.648 55.8531 250.778 56.1542 250.9 56.4318C251.02 56.7099 251.102 56.9166 251.146 57.052C251.208 57.1723 251.29 57.2176 251.396 57.1875L251.824 57.0291C251.9 56.9995 251.966 56.8864 252.026 56.6911C252.086 56.5562 252.158 56.3906 252.241 56.1947C252.324 55.9999 252.41 55.7968 252.501 55.5864C252.59 55.3755 252.68 55.1692 252.77 54.9662C252.861 54.763 252.944 54.5864 253.02 54.4359L256.424 47.3771C256.485 47.3015 256.514 47.3166 256.514 47.4223L257.349 54.0296C257.364 54.1958 257.39 54.4323 257.429 54.74C257.466 55.049 257.5 55.3682 257.529 55.699C257.56 56.0296 257.582 56.3416 257.598 56.6348C257.612 56.928 257.62 57.1422 257.62 57.2775C257.62 57.3078 257.638 57.3411 257.677 57.3791C257.713 57.4166 257.748 57.4275 257.778 57.413L258.048 57.3676L259.537 57.0974L259.83 57.052C259.921 57.0218 259.957 56.9766 259.942 56.9166C259.897 56.7812 259.849 56.5671 259.797 56.2734C259.744 55.9812 259.686 55.6687 259.628 55.338ZM235.756 51.8307C235.44 52.6359 235.012 53.339 234.469 53.9395C233.929 54.5411 233.285 55.0151 232.541 55.3604C231.797 55.7067 230.997 55.8791 230.14 55.8791C229.282 55.8791 228.481 55.7067 227.737 55.3604C226.993 55.0151 226.346 54.5411 225.798 53.9395C225.249 53.339 224.821 52.6359 224.513 51.8307C224.204 51.0271 224.05 50.1588 224.05 49.2266C224.05 48.2942 224.204 47.4223 224.513 46.6104C224.821 45.7979 225.246 45.0952 225.788 44.501C226.328 43.9072 226.972 43.4375 227.716 43.0916C228.46 42.7458 229.268 42.5728 230.14 42.5728C231.012 42.5728 231.821 42.7458 232.565 43.0916C233.309 43.4375 233.952 43.9072 234.493 44.501C235.034 45.0952 235.458 45.7979 235.766 46.6104C236.074 47.4223 236.229 48.2942 236.229 49.2266C236.229 50.1588 236.072 51.0271 235.756 51.8307ZM236.06 43.3062C235.33 42.5771 234.466 42.0094 233.466 41.6031C232.466 41.1968 231.373 40.9947 230.185 40.9947C228.997 40.9947 227.9 41.1968 226.892 41.6031C225.885 42.0094 225.012 42.5771 224.276 43.3062C223.538 44.0354 222.96 44.9036 222.538 45.9108C222.117 46.9182 221.908 48.0307 221.908 49.249C221.908 50.452 222.11 51.5572 222.517 52.564C222.924 53.5714 223.49 54.44 224.22 55.1692C224.949 55.8984 225.813 56.4656 226.813 56.8714C227.813 57.2775 228.906 57.4807 230.094 57.4807C231.282 57.4807 232.384 57.2775 233.398 56.8714C234.414 56.4656 235.289 55.8984 236.026 55.1692C236.762 54.44 237.337 53.5714 237.752 52.564C238.165 51.5572 238.372 50.452 238.372 49.249C238.372 48.0307 238.168 46.9182 237.764 45.9108C237.357 44.9036 236.789 44.0354 236.06 43.3062ZM287.656 50.6698C287.182 49.9479 286.472 49.2864 285.525 48.6848C285.33 48.5651 285.105 48.4255 284.849 48.2676C284.593 48.1094 284.333 47.952 284.07 47.7942C283.808 47.6364 283.548 47.478 283.293 47.3203C283.036 47.1624 282.812 47.0162 282.616 46.8807C281.698 46.3094 281.24 45.5651 281.24 44.6479C281.24 44.0766 281.466 43.588 281.917 43.1818C282.369 42.776 282.984 42.5728 283.766 42.5728C284.397 42.5728 284.962 42.6823 285.457 42.8999C285.954 43.1182 286.397 43.3927 286.788 43.7234C286.878 43.8438 286.946 43.8286 286.99 43.678L287.533 42.1442C287.577 42.0395 287.548 41.9646 287.442 41.9192C287.186 41.8438 286.936 41.7608 286.686 41.6708C286.438 41.5807 286.209 41.4984 285.998 41.4228C285.246 41.1375 284.481 40.9947 283.698 40.9947C283.081 40.9947 282.5 41.0848 281.95 41.2646C281.402 41.4452 280.924 41.6974 280.52 42.0203C280.113 42.3438 279.793 42.7422 279.56 43.2162C279.328 43.689 279.21 44.2192 279.21 44.8056C279.21 45.588 279.406 46.3051 279.797 46.9599C280.188 47.6135 280.834 48.2114 281.737 48.7526C282.098 48.978 282.488 49.2228 282.909 49.4854C283.33 49.749 283.713 49.9854 284.06 50.1963C284.857 50.6771 285.416 51.1619 285.74 51.6504C286.062 52.139 286.225 52.6995 286.225 53.3307C286.225 53.6916 286.149 54.0266 285.998 54.3343C285.849 54.6427 285.646 54.9094 285.39 55.1348C285.134 55.3604 284.83 55.5375 284.477 55.6651C284.122 55.7927 283.737 55.8562 283.316 55.8562C282.744 55.8562 282.194 55.7551 281.668 55.552C281.142 55.349 280.684 55.0755 280.293 54.7291C280.204 54.6088 280.134 54.6239 280.09 54.7744L279.504 56.3755C279.46 56.4807 279.489 56.5484 279.594 56.5786C279.849 56.6542 280.128 56.7359 280.429 56.8266C280.729 56.9166 281.029 57.0151 281.33 57.1198C281.632 57.2244 281.981 57.3078 282.378 57.3676C282.777 57.4275 283.134 57.4583 283.45 57.4583C284.202 57.4583 284.878 57.3531 285.481 57.1422C286.081 56.9318 286.596 56.639 287.025 56.2624C287.454 55.887 287.785 55.439 288.017 54.9208C288.25 54.4015 288.366 53.8271 288.366 53.1952C288.366 52.2338 288.13 51.3911 287.656 50.6698ZM216.274 44.0614C216.284 43.7608 216.294 43.4411 216.309 43.1031C216.325 42.7646 216.34 42.4452 216.354 42.1442C216.369 41.8438 216.392 41.6182 216.422 41.4676C216.437 41.438 216.425 41.4083 216.389 41.3775C216.35 41.3474 216.317 41.3323 216.286 41.3323H216.129H214.37H214.212C214.121 41.3323 214.076 41.3775 214.076 41.4676C214.092 41.6182 214.11 41.8438 214.133 42.1442C214.156 42.4452 214.174 42.7646 214.189 43.1031C214.205 43.4411 214.214 43.7608 214.224 44.0614C214.232 44.3619 214.234 44.5802 214.234 44.7156V48.076C214.234 48.1662 214.189 48.2114 214.1 48.2114C213.844 48.2114 213.54 48.2151 213.186 48.2223C212.832 48.2307 212.464 48.2375 212.081 48.2447C211.698 48.2531 211.31 48.2567 210.918 48.2567C210.528 48.2567 210.166 48.2567 209.837 48.2567C209.16 48.2567 208.434 48.2567 207.66 48.2567C206.886 48.2567 206.19 48.2416 205.574 48.2114C205.485 48.2114 205.44 48.1662 205.44 48.076V44.7156C205.44 44.5802 205.442 44.3619 205.449 44.0614C205.458 43.7608 205.469 43.4411 205.485 43.1031C205.498 42.7646 205.514 42.4452 205.529 42.1442C205.544 41.8438 205.566 41.6182 205.597 41.4676C205.612 41.438 205.6 41.4083 205.564 41.3775C205.525 41.3474 205.492 41.3323 205.461 41.3323H205.304H203.545H203.386C203.296 41.3323 203.25 41.3775 203.25 41.4676C203.266 41.6182 203.285 41.8438 203.308 42.1442C203.33 42.4452 203.349 42.7646 203.364 43.1031C203.38 43.4411 203.389 43.7608 203.398 44.0614C203.405 44.3619 203.409 44.5802 203.409 44.7156V53.737C203.409 53.8875 203.405 54.1166 203.398 54.4244C203.389 54.7328 203.38 55.0562 203.364 55.3942C203.349 55.7328 203.33 56.0484 203.308 56.3416C203.285 56.6348 203.266 56.849 203.25 56.9843C203.236 57.0151 203.248 57.0442 203.285 57.0744C203.322 57.1047 203.356 57.1198 203.386 57.1198H203.545H205.304H205.461C205.492 57.1198 205.525 57.1047 205.564 57.0744C205.6 57.0442 205.612 57.0151 205.597 56.9843C205.566 56.849 205.544 56.6348 205.529 56.3416C205.514 56.0484 205.498 55.7328 205.485 55.3942C205.469 55.0562 205.458 54.7328 205.449 54.4244C205.442 54.1166 205.44 53.8875 205.44 53.737V49.9932C205.44 49.9176 205.485 49.8802 205.574 49.8802C205.86 49.8651 206.178 49.8542 206.533 49.8458C206.886 49.839 207.25 49.8318 207.626 49.8234C208.002 49.8166 208.377 49.8124 208.754 49.8124C209.13 49.8124 209.49 49.8124 209.837 49.8124C210.166 49.8124 210.533 49.8124 210.93 49.8124C211.329 49.8124 211.72 49.8124 212.102 49.8124C212.488 49.8124 212.85 49.8166 213.197 49.8234C213.542 49.8318 213.844 49.8427 214.1 49.8578C214.189 49.8578 214.234 49.9026 214.234 49.9932V53.737C214.234 53.8875 214.232 54.1166 214.224 54.4244C214.214 54.7328 214.205 55.0562 214.189 55.3942C214.174 55.7328 214.156 56.0484 214.133 56.3416C214.11 56.6348 214.092 56.849 214.076 56.9843C214.061 57.0151 214.073 57.0442 214.11 57.0744C214.148 57.1047 214.181 57.1198 214.212 57.1198H214.37H216.129H216.286C216.317 57.1198 216.35 57.1047 216.389 57.0744C216.425 57.0442 216.437 57.0151 216.422 56.9843C216.392 56.849 216.369 56.6348 216.354 56.3416C216.34 56.0484 216.325 55.7328 216.309 55.3942C216.294 55.0562 216.284 54.7328 216.274 54.4244C216.268 54.1166 216.265 53.8875 216.265 53.737V44.7156C216.265 44.5802 216.268 44.3619 216.274 44.0614ZM273.929 55.451C273.553 55.4812 273.045 55.5036 272.406 55.5187C271.768 55.5338 270.9 55.5411 269.801 55.5411C269.47 55.5411 269.156 55.5375 268.854 55.5296C268.554 55.5218 268.284 55.5036 268.042 55.4734C267.741 55.4583 267.569 55.3307 267.524 55.0895C267.509 54.9995 267.497 54.8047 267.49 54.5036C267.482 54.2026 267.478 53.9395 267.478 53.7146L267.318 50.038C267.318 49.963 267.49 49.9176 267.513 49.9026C267.536 49.888 267.569 49.8728 267.614 49.8578C267.9 49.8275 268.232 49.8124 268.608 49.8124C268.982 49.8124 269.344 49.8124 269.689 49.8124C270.036 49.8124 270.404 49.8203 270.794 49.8348C271.186 49.8499 271.456 49.8651 271.606 49.8802C271.681 49.8802 271.726 49.8427 271.741 49.7671C271.801 49.602 271.885 49.3692 271.99 49.0682C272.094 48.7676 272.185 48.5198 272.261 48.3244C272.29 48.2338 272.245 48.189 272.125 48.189C271.854 48.2042 271.501 48.2187 271.065 48.2338C270.629 48.249 270.17 48.2567 269.689 48.2567C269.538 48.2567 269.365 48.2567 269.17 48.2567C268.976 48.2567 268.776 48.2567 268.573 48.2567C268.37 48.2567 268.181 48.2531 268.009 48.2447C267.837 48.2375 267.705 48.2266 267.614 48.2114C267.524 48.2114 267.478 48.1588 267.478 48.0536V44.7156C267.478 44.6556 267.478 44.5504 267.478 44.3999C267.478 44.2499 267.482 44.0922 267.49 43.926C267.497 43.7608 267.505 43.6072 267.513 43.4635C267.521 43.3214 267.524 43.2271 267.524 43.1818C267.54 43.0463 267.614 42.9718 267.75 42.9567C267.9 42.9416 268.144 42.9338 268.482 42.9338C268.821 42.9338 269.238 42.9338 269.734 42.9338C270.38 42.9338 270.993 42.9416 271.572 42.9567C272.15 42.9718 272.636 42.9942 273.026 43.0239C273.132 43.0239 273.2 42.987 273.23 42.9114C273.29 42.7162 273.369 42.4828 273.466 42.2119C273.564 41.9416 273.666 41.6938 273.772 41.4676C273.801 41.3775 273.756 41.3323 273.636 41.3323C272.974 41.3474 272.29 41.3588 271.584 41.3666C270.877 41.3739 270.261 41.3775 269.734 41.3775C269.449 41.3775 269.117 41.3775 268.741 41.3775C268.366 41.3775 267.982 41.3739 267.592 41.3666C267.201 41.3588 266.813 41.3515 266.43 41.3438C266.048 41.3364 265.712 41.3323 265.426 41.3323C265.337 41.3323 265.292 41.3775 265.292 41.4676C265.306 41.6031 265.325 41.8255 265.348 42.1332C265.37 42.4416 265.389 42.7608 265.404 43.0916C265.418 43.4223 265.43 43.7427 265.438 44.0504C265.445 44.3588 265.449 44.5802 265.449 44.7156V53.737C265.449 53.8723 265.445 54.0938 265.438 54.4015C265.43 54.7104 265.418 55.0338 265.404 55.3718C265.389 55.7104 265.37 56.0338 265.348 56.3416C265.325 56.6499 265.306 56.8714 265.292 57.0067C265.292 57.0974 265.322 57.1422 265.382 57.1422C265.608 57.1422 265.918 57.138 266.318 57.1307C266.716 57.1234 267.133 57.1198 267.569 57.1198C268.005 57.1198 268.418 57.1162 268.81 57.1088C269.201 57.101 269.509 57.0974 269.734 57.0974C270.2 57.0974 270.774 57.0974 271.46 57.0974C272.144 57.0974 272.816 57.1119 273.478 57.1422C273.538 57.1422 273.572 57.1271 273.58 57.0974C273.588 57.0671 273.598 57.037 273.614 57.0067C273.674 56.8119 273.741 56.5864 273.816 56.3307C273.892 56.0744 273.966 55.8338 274.042 55.6088C274.072 55.5036 274.034 55.451 273.929 55.451ZM86.8862 50.8275C86.9014 50.4974 86.9165 50.1734 86.931 49.8578C86.9462 49.5416 86.9695 49.2562 86.9998 49.0004C87.0134 48.8651 86.9545 48.7974 86.8191 48.7974C86.7279 48.8124 86.5415 48.8239 86.2602 48.8318C85.979 48.839 85.6711 48.8427 85.3362 48.8427C85.0019 48.8427 84.6805 48.8427 84.3727 48.8427C84.0634 48.8427 83.8415 48.8427 83.7071 48.8427C83.2258 48.8427 82.7326 48.8348 82.229 48.8203C81.7258 48.8056 81.3378 48.79 81.0675 48.775C80.9618 48.775 80.8951 48.8203 80.8649 48.9104C80.7894 49.151 80.7071 49.4031 80.617 49.6662C80.5269 49.9291 80.4435 50.1438 80.3686 50.3083C80.3383 50.4146 80.3831 50.4666 80.5034 50.4666C80.5941 50.4666 80.7779 50.4594 81.0571 50.4438C81.3347 50.4291 81.6389 50.4176 81.9701 50.4104C82.3009 50.4026 82.6274 50.3952 82.9514 50.3875C83.2743 50.3802 83.5186 50.376 83.6842 50.376H84.5415C84.6607 50.3916 84.7206 50.452 84.7206 50.5567C84.7509 50.8723 84.7743 51.2447 84.7894 51.6728C84.8039 52.1015 84.8113 52.4662 84.8113 52.7671C84.8113 52.9176 84.8113 53.1015 84.8113 53.3198C84.8113 53.538 84.8077 53.7562 84.8009 53.9734C84.7925 54.1916 84.7858 54.4015 84.7774 54.6047C84.7695 54.8078 84.7659 54.9624 84.7659 55.0671C84.7659 55.2026 84.6837 55.3078 84.5186 55.3832C84.1419 55.549 83.7071 55.6723 83.2107 55.7551C82.7138 55.838 82.2107 55.8791 81.6993 55.8791C80.8425 55.8791 80.0305 55.7067 79.2629 55.3604C78.4967 55.0151 77.8233 54.5411 77.2446 53.9395C76.6659 53.339 76.2077 52.6359 75.8695 51.8307C75.5305 51.0271 75.3618 50.1588 75.3618 49.2266C75.3618 48.2942 75.5274 47.4223 75.8591 46.6104C76.1905 45.7979 76.6462 45.0952 77.2263 44.501C77.8061 43.9072 78.4805 43.4375 79.2482 43.0916C80.0165 42.7458 80.8383 42.5728 81.7118 42.5728C82.5706 42.5728 83.3613 42.6932 84.0842 42.9338C84.8077 43.1744 85.4107 43.49 85.8919 43.8812C85.9821 43.9567 86.0509 43.9338 86.0957 43.8135L86.7055 42.1666C86.7358 42.0766 86.7055 42.0171 86.6154 41.987C86.3113 41.9114 86.0029 41.8286 85.691 41.7384C85.3795 41.6484 85.0415 41.5432 84.6758 41.4228C84.2847 41.3031 83.8077 41.201 83.2441 41.1182C82.6805 41.0364 82.1503 40.9947 81.6539 40.9947C80.4665 40.9947 79.3613 41.1968 78.3383 41.6031C77.3165 42.0094 76.4253 42.5771 75.6665 43.3062C74.9071 44.0354 74.3097 44.9036 73.8733 45.9108C73.4373 46.9182 73.2195 48.0307 73.2195 49.249C73.2195 50.452 73.4373 51.5572 73.8749 52.564C74.3113 53.5714 74.9091 54.44 75.6706 55.1692C76.431 55.8984 77.3233 56.4656 78.3477 56.8714C79.3717 57.2775 80.4785 57.4807 81.6681 57.4807C82.8123 57.4807 83.8405 57.3714 84.7519 57.1531C85.6629 56.9354 86.3815 56.699 86.9091 56.4432C86.9695 56.3984 86.9998 56.3307 86.9998 56.24C86.9695 55.9692 86.9462 55.6687 86.931 55.338C86.9165 55.0078 86.9014 54.6723 86.8862 54.3343C86.8711 53.9963 86.8597 53.6692 86.8525 53.3531C86.8446 53.0375 86.841 52.7671 86.841 52.5411C86.841 52.3307 86.8446 52.0755 86.8525 51.7744C86.8597 51.4739 86.8711 51.1583 86.8862 50.8275ZM68.2389 44.0614C68.2471 43.7608 68.2586 43.4411 68.2738 43.1031C68.2889 42.7646 68.3039 42.4452 68.3191 42.1442C68.3326 41.8438 68.3561 41.6182 68.3858 41.4676C68.4009 41.438 68.3894 41.4083 68.3525 41.3775C68.3143 41.3474 68.2805 41.3323 68.2509 41.3323H68.093H66.5597H66.4014C66.3113 41.3323 66.2659 41.3775 66.2659 41.4676C66.281 41.6182 66.3009 41.8438 66.3227 42.1442C66.3457 42.4452 66.3643 42.7646 66.3795 43.1031C66.3946 43.4411 66.4045 43.7608 66.4129 44.0614C66.4195 44.3619 66.4243 44.5802 66.4243 44.7156V52.7895C66.4243 52.9099 66.3795 52.925 66.2889 52.8348L57.9217 43.5203C57.5457 43.0995 57.1774 42.678 56.8165 42.2572C56.4555 41.8364 56.1847 41.513 56.0039 41.2875C55.9149 41.1828 55.8315 41.1447 55.7566 41.1744L55.3733 41.3099C55.2982 41.3406 55.2529 41.3775 55.2378 41.4228C55.2227 41.4676 55.2227 41.528 55.2378 41.6031C55.2529 41.7536 55.2717 41.9567 55.2946 42.2119C55.3165 42.4676 55.3315 42.7422 55.3399 43.0354C55.3467 43.3286 55.3534 43.6255 55.3618 43.926C55.3686 44.2275 55.3733 44.49 55.3733 44.7156V53.737C55.3733 53.8875 55.3686 54.1166 55.3618 54.4244C55.3534 54.7328 55.343 55.0562 55.3285 55.3942C55.3134 55.7328 55.2946 56.0484 55.2717 56.3416C55.2493 56.6348 55.2301 56.849 55.2149 56.9843C55.1998 57.0151 55.2113 57.0442 55.2493 57.0744C55.2867 57.1047 55.3201 57.1198 55.3503 57.1198H55.5086H57.0419H57.1993C57.2295 57.1198 57.2634 57.1047 57.3014 57.0744C57.3383 57.0442 57.3498 57.0151 57.3353 56.9843C57.305 56.849 57.2826 56.6348 57.2681 56.3416C57.2529 56.0484 57.2378 55.7328 57.2227 55.3942C57.2077 55.0562 57.1962 54.7328 57.1894 54.4244C57.181 54.1166 57.1774 53.8875 57.1774 53.737V45.8432C57.1774 45.7234 57.2227 45.7156 57.3129 45.8203L67.4847 57.1198C67.5749 57.2244 67.6419 57.2854 67.6867 57.3004C67.7321 57.3146 67.7925 57.3078 67.8675 57.2775L68.2509 57.1422C68.3711 57.0974 68.4159 57.0067 68.3858 56.8714C68.3561 56.6911 68.3326 56.4734 68.3191 56.2176C68.3039 55.9619 68.2889 55.6916 68.2738 55.4056C68.2586 55.1203 68.2471 54.8343 68.2389 54.549C68.2321 54.2635 68.2285 53.9927 68.2285 53.737V44.7156C68.2285 44.5802 68.2321 44.3619 68.2389 44.0614ZM49.7925 41.3323H47.8977C47.8077 41.3323 47.7623 41.3775 47.7623 41.4676C47.7774 41.6182 47.7962 41.8438 47.8191 42.1442C47.841 42.4452 47.8597 42.7646 47.8758 43.1031C47.8899 43.4411 47.9014 43.7608 47.9097 44.0614C47.9165 44.3619 47.9201 44.5802 47.9201 44.7156L47.8977 51.1432C47.8977 52.6318 47.5358 53.7932 46.8123 54.6275C46.0889 55.4619 45.0337 55.8791 43.6471 55.8791C42.2597 55.8791 41.1971 55.4619 40.4586 54.6275C39.7191 53.7932 39.3503 52.6318 39.3503 51.1432L39.3279 44.7156C39.3279 44.5802 39.3315 44.3619 39.3383 44.0614C39.3467 43.7608 39.3582 43.4411 39.3733 43.1031C39.3873 42.7646 39.4034 42.4452 39.4186 42.1442C39.4321 41.8438 39.4555 41.6182 39.4858 41.4676C39.5009 41.438 39.4889 41.4083 39.4519 41.3775C39.4138 41.3474 39.3801 41.3323 39.3503 41.3323H39.1925H37.4545H37.2982C37.2082 41.3323 37.1629 41.3775 37.1629 41.4676C37.1779 41.6182 37.1962 41.8438 37.2195 42.1442C37.2415 42.4452 37.2602 42.7646 37.2753 43.1031C37.2905 43.4411 37.3019 43.7608 37.3097 44.0614C37.317 44.3619 37.3201 44.5802 37.3201 44.7156V51.5718C37.3201 52.4739 37.4706 53.2895 37.7701 54.0187C38.0711 54.7484 38.4982 55.3646 39.0539 55.8682C39.6091 56.3718 40.2769 56.7624 41.0571 57.0411C41.8383 57.3187 42.7003 57.4583 43.6471 57.4583C44.5925 57.4583 45.4514 57.3187 46.2243 57.0411C46.9977 56.7624 47.6571 56.3718 48.2055 55.8682C48.7529 55.3646 49.1769 54.7484 49.4779 54.0187C49.7774 53.2895 49.9279 52.4739 49.9279 51.5718V44.7156C49.9279 44.5802 49.931 44.3619 49.9394 44.0614C49.9462 43.7608 49.9582 43.4411 49.9727 43.1031C49.9878 42.7646 50.0029 42.4452 50.0181 42.1442C50.0331 41.8438 50.055 41.6182 50.0853 41.4676C50.0853 41.3775 50.0399 41.3323 49.9498 41.3323H49.7925ZM32.0337 55.338C31.9733 55.0078 31.9165 54.6875 31.8643 54.3796C31.8113 54.0714 31.7779 53.8348 31.7629 53.6692L30.5905 44.7156C30.5753 44.5802 30.5525 44.3619 30.5222 44.0614C30.4919 43.7608 30.4618 43.4411 30.4315 43.1031C30.4019 42.7646 30.3763 42.4452 30.3529 42.1442C30.331 41.8438 30.3195 41.6182 30.3195 41.4676C30.3195 41.3775 30.2659 41.3323 30.1623 41.3323H30.0034H29.8915H29.7326C29.6274 41.3323 29.5602 41.3775 29.5305 41.4676C29.4853 41.6182 29.3951 41.8479 29.2591 42.1556C29.1243 42.4646 28.9815 42.787 28.831 43.1255C28.6805 43.4635 28.5383 43.7832 28.4029 44.0838C28.2675 44.3848 28.1691 44.6031 28.1091 44.7384L24.0274 53.1728C23.9971 53.2484 23.9706 53.2854 23.9487 53.2854C23.9253 53.2854 23.8987 53.2484 23.8701 53.1728L19.8102 44.7384C19.6899 44.4979 19.5613 44.2156 19.4269 43.8922C19.2915 43.5698 19.1561 43.2422 19.0206 42.9114C18.8853 42.5807 18.7571 42.2687 18.6367 41.9755C18.5159 41.6818 18.4258 41.4452 18.367 41.2646C18.3217 41.1744 18.2534 41.1375 18.1634 41.1526L17.7118 41.3099C17.6217 41.3551 17.5779 41.4536 17.5779 41.6031C17.5779 41.7536 17.5659 41.9755 17.543 42.2687C17.5206 42.5614 17.4977 42.8666 17.4758 43.1818C17.4525 43.4979 17.4274 43.7984 17.3971 44.0838C17.3659 44.3698 17.3441 44.5802 17.329 44.7156L16.1337 53.737C16.1186 53.8875 16.0847 54.1166 16.0326 54.4244C15.9795 54.7328 15.9274 55.0562 15.8743 55.3942C15.8222 55.7328 15.7654 56.0484 15.705 56.3416C15.6451 56.6348 15.593 56.849 15.5477 56.9843C15.5165 57.0744 15.5545 57.1198 15.6602 57.1198H15.8175H17.5998H17.7571C17.8623 57.1198 17.9154 57.0744 17.9154 56.9843C17.9154 56.849 17.9227 56.6348 17.9373 56.3416C17.9525 56.0484 17.9795 55.7328 18.0175 55.3942C18.0545 55.0562 18.0878 54.7328 18.1181 54.4244C18.1482 54.1166 18.1711 53.8875 18.1862 53.737L18.9758 47.4223C18.991 47.3318 19.0206 47.3166 19.0659 47.3771L22.1326 53.7594C22.2233 53.9703 22.3389 54.237 22.4821 54.5599C22.6249 54.8832 22.7681 55.2067 22.9102 55.5296C23.0539 55.8531 23.1847 56.1542 23.305 56.4318C23.4253 56.7099 23.5086 56.9166 23.5539 57.052C23.6143 57.1723 23.6962 57.2176 23.8019 57.1875L24.2301 57.0291C24.305 56.9995 24.3733 56.8864 24.4337 56.6911C24.4935 56.5562 24.5643 56.3906 24.6477 56.1947C24.7301 55.9999 24.8165 55.7968 24.9071 55.5864C24.9971 55.3755 25.0873 55.1692 25.1779 54.9662C25.2681 54.763 25.3503 54.5864 25.4253 54.4359L28.831 47.3771C28.8915 47.3015 28.9217 47.3166 28.9217 47.4223L29.7561 54.0296C29.7711 54.1958 29.7962 54.4323 29.8347 54.74C29.8717 55.049 29.9066 55.3682 29.9362 55.699C29.9665 56.0296 29.9883 56.3416 30.0034 56.6348C30.0186 56.928 30.0269 57.1422 30.0269 57.2775C30.0269 57.3078 30.0451 57.3411 30.0821 57.3791C30.1206 57.4166 30.1539 57.4275 30.1842 57.413L30.455 57.3676L31.943 57.0974L32.2358 57.052C32.3263 57.0218 32.3643 56.9766 32.3493 56.9166C32.3039 56.7812 32.2555 56.5671 32.2025 56.2734C32.1503 55.9812 32.0935 55.6687 32.0337 55.338ZM105.235 51.8307C104.919 52.6359 104.49 53.339 103.949 53.9395C103.407 54.5411 102.765 55.0151 102.021 55.3604C101.277 55.7067 100.476 55.8791 99.6186 55.8791C98.7618 55.8791 97.9613 55.7067 97.217 55.3604C96.4727 55.0151 95.8258 54.5411 95.2774 53.9395C94.7279 53.339 94.2993 52.6359 93.9915 51.8307C93.6837 51.0271 93.5301 50.1588 93.5301 49.2266C93.5301 48.2942 93.6837 47.4223 93.9915 46.6104C94.2993 45.7979 94.7243 45.0952 95.2659 44.501C95.8077 43.9072 96.4498 43.4375 97.1935 43.0916C97.9378 42.7458 98.7467 42.5728 99.6186 42.5728C100.491 42.5728 101.299 42.7458 102.043 43.0916C102.787 43.4375 103.43 43.9072 103.971 44.501C104.513 45.0952 104.937 45.7979 105.245 46.6104C105.553 47.4223 105.708 48.2942 105.708 49.2266C105.708 50.1588 105.549 51.0271 105.235 51.8307ZM105.539 43.3062C104.809 42.5771 103.945 42.0094 102.946 41.6031C101.945 41.1968 100.851 40.9947 99.6634 40.9947C98.4758 40.9947 97.3779 41.1968 96.3711 41.6031C95.3629 42.0094 94.4915 42.5771 93.7545 43.3062C93.0186 44.0354 92.4383 44.9036 92.0186 45.9108C91.5971 46.9182 91.3862 48.0307 91.3862 49.249C91.3862 50.452 91.5899 51.5572 91.9951 52.564C92.4014 53.5714 92.9686 54.44 93.6987 55.1692C94.4279 55.8984 95.2925 56.4656 96.2925 56.8714C97.2919 57.2775 98.3858 57.4807 99.5733 57.4807C100.761 57.4807 101.862 57.2775 102.877 56.8714C103.892 56.4656 104.769 55.8984 105.504 55.1692C106.242 54.44 106.817 53.5714 107.23 52.564C107.643 51.5572 107.85 50.452 107.85 49.249C107.85 48.0307 107.648 46.9182 107.242 45.9108C106.835 44.9036 106.268 44.0354 105.539 43.3062Z" fill="#1E1C1B"/>
<path d="M178.823 59.698C177.401 59.698 176.153 59.7324 174.628 59.8021C174.42 59.698 174.351 59.1433 174.559 58.9354L175.217 58.8313C177.332 58.4844 177.332 58.1381 177.332 54.4985V49.61C177.332 48.5704 177.263 48.5005 175.599 48.5005H165.684C164.02 48.5005 163.951 48.5704 163.951 49.61V54.4985C163.951 58.1381 164.124 58.6229 166.065 58.8313L167.071 58.9354C167.279 59.074 167.209 59.698 167.001 59.8021C165.129 59.7324 163.951 59.698 162.599 59.698C161.108 59.698 159.929 59.7677 158.577 59.8021C158.369 59.698 158.3 59.1433 158.508 58.9354L159.097 58.8313C161.039 58.4844 161.108 58.1381 161.108 54.4985V42.0188C161.108 38.3781 160.865 37.789 159.063 37.6505L158.161 37.5813C157.953 37.4422 158.023 36.8182 158.231 36.7146C159.929 36.749 161.108 36.8182 162.599 36.8182C163.951 36.8182 165.129 36.7838 166.62 36.7146C166.828 36.8182 166.896 37.4422 166.689 37.5813L166.031 37.6505C164.02 37.8589 163.951 38.3781 163.951 42.0188V46.0052C163.951 47.0797 164.02 47.1141 165.684 47.1141H175.599C177.263 47.1141 177.332 47.0797 177.332 46.0052V42.0188C177.332 38.3781 177.263 37.8589 175.217 37.6505L174.559 37.5813C174.351 37.4422 174.42 36.8182 174.628 36.7146C176.223 36.7838 177.401 36.8182 178.823 36.8182C180.173 36.8182 181.353 36.7838 182.912 36.7146C183.12 36.8182 183.191 37.4422 182.983 37.5813L182.255 37.6505C180.244 37.8589 180.173 38.3781 180.173 42.0188V54.4985C180.173 58.1381 180.244 58.5885 182.255 58.8313L183.087 58.9354C183.295 59.074 183.225 59.698 183.017 59.8021C181.353 59.7324 180.173 59.698 178.823 59.698ZM155.247 59.8021C153.827 59.7324 152.405 59.698 151.157 59.698C149.944 59.698 148.384 59.7324 146.963 59.8021C146.72 59.6281 146.685 59.1433 146.893 58.9354L147.899 58.8313C149.597 58.6584 149.597 58.1032 149.597 55.8844L149.492 41.4292H149.424C149.181 41.8105 147.864 44.5833 147.171 45.9354L144.084 52.0021C142.525 55.0526 140.965 58.3114 140.341 59.9062C140.272 60.0105 140.133 60.0448 139.995 60.0448C139.924 60.0448 139.752 60.0105 139.681 59.9062C139.093 58.0688 137.429 54.6714 136.632 52.9724L133.512 46.2824C132.783 44.6876 132.055 42.8854 131.293 41.2906H131.224C131.084 43.4396 130.981 45.45 130.878 47.4609C130.773 49.5756 130.635 52.6609 130.635 55.6073C130.635 58.1729 130.842 58.7272 132.195 58.8313L133.512 58.9354C133.755 59.1433 133.72 59.698 133.477 59.8021C132.298 59.7324 130.947 59.698 129.63 59.698C128.52 59.698 127.272 59.7324 126.093 59.8021C125.885 59.6281 125.816 59.1084 126.024 58.9354L126.786 58.8313C128.243 58.6229 128.728 58.4157 128.936 55.9885C129.144 53.7005 129.317 51.7942 129.525 48.362C129.698 45.4849 129.836 42.5385 129.907 40.6313C129.976 38.448 129.698 37.9276 127.583 37.6505L127.029 37.5813C126.856 37.3729 126.89 36.8532 127.168 36.7146C128.208 36.7838 129.04 36.8182 129.907 36.8182C130.704 36.8182 131.64 36.8182 132.783 36.7146C132.645 38.0666 133.512 40.2157 134.587 42.4344L138.539 50.4422C139.336 52.0714 140.099 53.6662 140.929 55.1912H141C141.935 53.562 142.803 51.76 143.669 49.9912L146.928 43.3709C148.488 40.2157 149.492 38.3089 149.561 36.7146C150.74 36.8182 151.468 36.8182 152.163 36.8182C153.028 36.8182 154.172 36.7838 155.247 36.7146C155.455 36.8532 155.455 37.4422 155.283 37.5813L154.555 37.6505C152.371 37.8589 152.093 38.5172 152.128 40.9438C152.196 44.6182 152.231 51.0318 152.508 56.0234C152.613 57.7562 152.579 58.6928 154.207 58.8313L155.317 58.9354C155.525 59.1433 155.489 59.6636 155.247 59.8021ZM154.556 16.1292C136.772 16.1292 122.305 30.5969 122.305 48.3797C122.305 66.1625 136.772 80.6302 154.556 80.6302C172.339 80.6302 186.807 66.1625 186.807 48.3797C186.807 30.5969 172.339 16.1292 154.556 16.1292ZM154.556 81.9662C136.036 81.9662 120.969 66.8996 120.969 48.3797C120.969 29.8594 136.036 14.7933 154.556 14.7933C173.075 14.7933 188.143 29.8594 188.143 48.3797C188.143 66.8996 173.075 81.9662 154.556 81.9662ZM154.556 12.9281C134.976 12.9281 119.104 28.8 119.104 48.3797C119.104 67.9594 134.976 83.8318 154.556 83.8318C174.135 83.8318 190.007 67.9594 190.007 48.3797C190.007 28.8 174.135 12.9281 154.556 12.9281Z" fill="#385C9A"/>
<path d="M205.02 65.8124L204.429 67.491H205.621L205.036 65.8124H205.02ZM205.397 65.14L206.9 69.0437H206.168L205.801 68.0104H204.243L203.877 69.0437H203.172L204.669 65.14H205.397Z" fill="#231F20"/>
<path d="M215.044 66.3813H214.36C214.224 65.8619 213.902 65.6051 213.387 65.6051C212.644 65.6051 212.202 66.2223 212.202 67.0922C212.202 67.9557 212.639 68.5786 213.387 68.5786C213.944 68.5786 214.311 68.1854 214.382 67.5567H215.05C214.978 68.4911 214.35 69.1365 213.387 69.1365C212.835 69.1365 212.387 68.9395 212.036 68.5573C211.692 68.1687 211.518 67.6771 211.518 67.0922C211.518 65.9771 212.212 65.0474 213.387 65.0474C214.29 65.0474 214.956 65.5557 215.044 66.3813Z" fill="#231F20"/>
<path d="M218.094 65.14V68.4536H220.078V69.0437H217.41V65.14H218.094Z" fill="#231F20"/>
<path d="M223.683 65.8124L223.091 67.491H224.283L223.699 65.8124H223.683ZM224.059 65.14L225.563 69.0437H224.83L224.465 68.0104H222.906L222.541 69.0437H221.834L223.333 65.14H224.059Z" fill="#231F20"/>
<path d="M227.612 65.14L228.646 66.8894L229.663 65.14H230.428L228.968 67.5129V69.0437H228.286V67.5129L226.82 65.14H227.612Z" fill="#231F20"/>
<path d="M235.336 65.14V65.7306H234.096V69.0437H233.412V65.7306H232.178V65.14H235.336Z" fill="#231F20"/>
<path d="M238.973 68.5786C239.816 68.5786 240.16 67.8354 240.16 67.0922C240.16 66.3485 239.81 65.6051 238.969 65.6051C238.126 65.6051 237.788 66.3542 237.788 67.0922C237.788 67.8302 238.137 68.5786 238.973 68.5786ZM240.844 67.0922C240.844 68.2125 240.133 69.1365 238.973 69.1365C237.804 69.1365 237.104 68.2073 237.104 67.0922C237.104 65.9823 237.809 65.0474 238.973 65.0474C240.138 65.0474 240.844 65.9823 240.844 67.0922Z" fill="#231F20"/>
<path d="M243.571 65.14L245.354 68.0161H245.364V65.14H246.015V69.0437H245.292L243.516 66.1733H243.5V69.0437H242.85V65.14H243.571Z" fill="#231F20"/>
<path d="M254.704 66.3813H254.02C253.883 65.8619 253.562 65.6051 253.047 65.6051C252.304 65.6051 251.86 66.2223 251.86 67.0922C251.86 67.9557 252.298 68.5786 253.047 68.5786C253.604 68.5786 253.971 68.1854 254.042 67.5567H254.708C254.638 68.4911 254.01 69.1365 253.047 69.1365C252.495 69.1365 252.046 68.9395 251.696 68.5573C251.352 68.1687 251.178 67.6771 251.178 67.0922C251.178 65.9771 251.871 65.0474 253.047 65.0474C253.95 65.0474 254.616 65.5557 254.704 66.3813Z" fill="#231F20"/>
<path d="M258.406 68.5786C259.248 68.5786 259.592 67.8354 259.592 67.0922C259.592 66.3485 259.242 65.6051 258.401 65.6051C257.558 65.6051 257.22 66.3542 257.22 67.0922C257.22 67.8302 257.569 68.5786 258.406 68.5786ZM260.276 67.0922C260.276 68.2125 259.565 69.1365 258.406 69.1365C257.236 69.1365 256.537 68.2073 256.537 67.0922C256.537 65.9823 257.242 65.0474 258.406 65.0474C259.57 65.0474 260.276 65.9823 260.276 67.0922Z" fill="#231F20"/>
<path d="M263.37 65.14L264.447 68.1962H264.459L265.508 65.14H266.459V69.0437H265.808V66.0312H265.798L264.715 69.0437H264.152L263.07 66.0312H263.059V69.0437H262.408V65.14H263.37Z" fill="#231F20"/>
<path d="M270.716 66.988C271.076 66.988 271.382 66.7692 271.382 66.3432C271.382 65.9056 271.148 65.6978 270.732 65.6978H269.698V66.988H270.716ZM270.765 65.14C271.601 65.14 272.066 65.5994 272.066 66.3484C272.066 67.1082 271.59 67.5457 270.765 67.5457H269.698V69.0437H269.016V65.14H270.765Z" fill="#231F20"/>
<path d="M275.282 65.8124L274.69 67.491H275.882L275.298 65.8124H275.282ZM275.658 65.14L277.162 69.0437H276.43L276.063 68.0104H274.504L274.139 69.0437H273.434L274.931 65.14H275.658Z" fill="#231F20"/>
<path d="M279.967 65.14L281.75 68.0161H281.761V65.14H282.411V69.0437H281.69L279.913 66.1733H279.897V69.0437H279.246V65.14H279.967Z" fill="#231F20"/>
<path d="M285.303 65.14L286.336 66.8894L287.352 65.14H288.119L286.659 67.5129V69.0437H285.975V67.5129L284.51 65.14H285.303Z" fill="#231F20"/>
</svg>
